HIERARCHY
ROOT SpineBase
{
  OFFSET 0.000000 0.000000 0.000000
  CHANNELS 6 Xposition Yposition Zposition Zrotation Xrotation Yrotation
  JOINT SpineMid
  {
    OFFSET 0.000000 30.572656 0.000000
    CHANNELS 3 Zrotation Xrotation Yrotation
    JOINT SpineShoulder
    {
      OFFSET -0.053629 22.742971 -0.775383
      CHANNELS 3 Zrotation Xrotation Yrotation
      JOINT Neck
      {
        OFFSET -0.055301 7.538132 -0.584685
        CHANNELS 3 Zrotation Xrotation Yrotation
        JOINT Head
        {
          OFFSET -3.356605 14.162762 0.085980
          CHANNELS 3 Zrotation Xrotation Yrotation
          End Site
          {
            OFFSET 0 0 0
          }
        }
      }
      JOINT ShoulderLeft
      {
        OFFSET -16.152493 -4.066991 9.341725
        CHANNELS 3 Zrotation Xrotation Yrotation
        JOINT ElbowLeft
        {
          OFFSET -2.289642 -28.709203 3.965185
          CHANNELS 3 Zrotation Xrotation Yrotation
          JOINT WristLeft
          {
            OFFSET 0.988323 -22.387730 -7.346141
            CHANNELS 3 Zrotation Xrotation Yrotation
            JOINT HandLeft
            {
              OFFSET 1.042737 -2.187867 -1.289962
              CHANNELS 3 Zrotation Xrotation Yrotation
              JOINT HandTipLeft
              {
                OFFSET 1.775652 -7.826847 -0.884022
                CHANNELS 3 Zrotation Xrotation Yrotation
                End Site
                {
                  OFFSET 0 0 0
                }
              }
              JOINT ThumbLeft
              {
                OFFSET 3.188190 1.973249 -3.111182
                CHANNELS 3 Zrotation Xrotation Yrotation
                End Site
                {
                  OFFSET 0 0 0
                }
              }
            }
          }
        }
      }
      JOINT ShoulderRight
      {
        OFFSET 13.919790 -2.569915 -11.376694
        CHANNELS 3 Zrotation Xrotation Yrotation
        JOINT ElbowRight
        {
          OFFSET 6.596699 -24.024604 -4.308021
          CHANNELS 3 Zrotation Xrotation Yrotation
          JOINT WristRight
          {
            OFFSET -3.214140 -22.399097 -6.664451
            CHANNELS 3 Zrotation Xrotation Yrotation
            JOINT HandRight
            {
              OFFSET -1.141343 -6.344657 0.073600
              CHANNELS 3 Zrotation Xrotation Yrotation
              JOINT HandTipRight
              {
                OFFSET -2.352677 -6.776595 -1.230341
                CHANNELS 3 Zrotation Xrotation Yrotation
                End Site
                {
                  OFFSET 0 0 0
                }
              }
              JOINT ThumbRight
              {
                OFFSET 3.629195 -0.545381 -1.502222
                CHANNELS 3 Zrotation Xrotation Yrotation
                End Site
                {
                  OFFSET 0 0 0
                }
              }
            }
          }
        }
      }
    }
  }
  JOINT HipLeft
  {
    OFFSET -7.045017 0.336052 0.047356
    CHANNELS 3 Zrotation Xrotation Yrotation
    JOINT KneeLeft
    {
      OFFSET 6.659190 -33.331761 8.142426
      CHANNELS 3 Zrotation Xrotation Yrotation
      JOINT AnkleLeft
      {
        OFFSET 8.699372 -30.603782 7.718736
        CHANNELS 3 Zrotation Xrotation Yrotation
        JOINT FootLeft
        {
          OFFSET -5.115495 -2.571722 -10.036764
          CHANNELS 3 Zrotation Xrotation Yrotation
          End Site
          {
            OFFSET 0 0 0
          }
        }
      }
    }
  }
  JOINT HipRight
  {
    OFFSET 6.204355 1.705263 -6.894627
    CHANNELS 3 Zrotation Xrotation Yrotation
    JOINT KneeRight
    {
      OFFSET 8.108997 -30.380024 -0.529199
      CHANNELS 3 Zrotation Xrotation Yrotation
      JOINT AnkleRight
      {
        OFFSET 5.975069 -33.252933 8.425939
        CHANNELS 3 Zrotation Xrotation Yrotation
        JOINT FootRight
        {
          OFFSET -4.991432 -3.012297 -9.506343
          CHANNELS 3 Zrotation Xrotation Yrotation
          End Site
          {
            OFFSET 0 0 0
          }
        }
      }
    }
  }
}
MOTION
Frames: 16
Frame Time: 0.033333
42.752283 68.886813 326.943416 -0.000000 0.000000 27.652206 0.000000 0.000000 -27.652206 -0.000000 0.000000 0.000000 -0.000000 0.000000 0.000000 0.000000 0.000000 0.000000 -0.000000 0.000000 0.000000 -0.000000 0.000000 0.000000 -0.000000 0.000000 0.000000 -0.000000 0.000000 0.000000 0.000000 0.000000 0.000000 0.000000 0.000000 0.000000 -0.000000 0.000000 0.000000 -0.000000 0.000000 0.000000 -0.000000 0.000000 0.000000 -0.000000 0.000000 0.000000 0.000000 0.000000 0.000000 0.000000 0.000000 0.000000 0.000000 0.000000 -27.652206 -0.000000 0.000000 0.000000 -0.000000 0.000000 0.000000 0.000000 0.000000 0.000000 0.000000 0.000000 -27.652206 -0.000000 0.000000 0.000000 -0.000000 0.000000 0.000000 0.000000 0.000000 0.000000
42.906025 68.849203 326.832311 0.163088 0.087789 27.036386 -0.185170 -0.004062 -27.036517 -0.000000 0.000000 0.000000 -0.000000 0.000000 0.000000 0.000000 0.000000 0.000000 -0.000000 0.000000 0.000000 -0.000000 0.000000 0.000000 -4.195421 -2.715351 1.115902 3.398760 3.312171 -1.019139 0.000000 0.000000 0.000000 0.000000 0.000000 0.000000 -0.000000 0.000000 0.000000 -0.000000 0.000000 0.000000 1.177799 0.282354 -0.040107 -0.304382 -1.959680 0.477672 0.000000 0.000000 0.000000 0.000000 0.000000 0.000000 -0.185170 -0.004062 -27.036517 -0.000000 0.000000 0.000000 6.314220 -12.111624 0.387515 0.000000 0.000000 0.000000 -0.185170 -0.004062 -27.036517 -0.000000 0.000000 0.000000 -0.000000 0.000000 0.000000 0.000000 0.000000 0.000000
43.047008 68.815695 326.733820 0.309652 0.159905 26.484949 -0.348465 -0.005028 -26.485397 -0.000000 0.000000 0.000000 -0.000000 0.000000 0.000000 0.000000 0.000000 0.000000 -0.000000 0.000000 0.000000 0.788868 0.021314 -0.257969 -8.278200 -5.208892 1.994527 5.874523 6.145879 -1.750300 0.000000 0.000000 0.000000 0.000000 0.000000 0.000000 0.523195 -0.656600 -0.271051 -0.526329 0.654090 0.277053 1.951813 0.601771 -0.096162 -0.603391 -3.540021 0.907642 0.000000 0.000000 0.000000 0.000000 0.000000 0.000000 -0.348465 -0.005028 -26.485397 1.007353 -0.062575 0.236216 13.385299 -26.225877 2.405997 0.000000 0.000000 0.000000 -0.348465 -0.005028 -26.485397 -0.000000 0.000000 0.000000 -0.000000 0.000000 0.000000 0.000000 0.000000 0.000000
43.175231 68.786289 326.647942 0.439761 0.216394 25.998524 -0.490114 -0.001724 -25.999362 -0.000000 0.000000 0.000000 -0.271761 -0.792171 -0.188092 0.000000 0.000000 0.000000 -0.000000 0.000000 0.000000 1.001263 -0.001786 -0.328492 -11.029836 -7.375812 2.298953 7.486833 8.557703 -2.162825 0.000000 0.000000 0.000000 0.000000 0.000000 0.000000 0.764215 -1.019623 -0.410117 -0.771614 1.014035 0.423745 2.348020 0.963049 -0.166372 -0.891112 -4.809750 1.284912 0.000000 0.000000 0.000000 0.000000 0.000000 0.000000 -0.490114 -0.001724 -25.999362 1.324158 -0.109773 0.302983 22.344255 -38.872961 6.842817 0.000000 0.000000 0.000000 -1.439327 -0.046067 -26.107157 0.832873 0.457501 0.104073 0.244481 0.181415 -1.070945 0.000000 0.000000 0.000000
43.290695 68.760987 326.574679 0.553476 0.257296 25.577543 -0.610317 0.006880 -25.578749 -0.000000 0.000000 0.000000 -0.334090 -1.005771 -0.239458 0.000000 0.000000 0.000000 -0.173112 0.835569 -0.089367 1.266874 -0.880116 -0.252114 -12.995467 -9.275501 2.244085 8.296496 10.593564 -2.239822 0.000000 0.000000 0.000000 0.000000 0.000000 0.000000 0.990707 -1.404183 -0.550994 -1.004461 1.394378 0.575358 2.378460 1.372728 -0.248819 -1.168393 -5.816141 1.608237 0.000000 0.000000 0.000000 0.000000 0.000000 0.000000 -1.420162 -0.466854 -25.865494 2.026231 0.618500 0.591603 30.543952 -47.168700 11.991800 0.000000 0.000000 0.000000 -1.812885 -0.032439 -25.708810 1.066505 0.557062 0.124608 0.313070 0.228141 -1.364201 0.000000 0.000000 0.000000
43.393399 68.739787 326.514030 0.650849 0.282640 25.222268 -0.709237 0.021665 -25.223739 -0.000000 0.000000 0.000000 -0.382143 -1.194119 -0.284924 0.000000 0.000000 0.000000 -0.232210 1.007259 -0.110481 1.296422 -1.117822 -0.219122 -14.238074 -10.946104 1.867217 8.354547 12.289827 -1.965160 0.000000 0.000000 0.000000 0.000000 0.000000 0.000000 1.202169 -1.808938 -0.693296 -1.224566 1.793855 0.731448 2.041744 1.839295 -0.341147 -1.441736 -6.588960 1.877978 0.000000 0.000000 0.000000 0.000000 0.000000 0.000000 -1.643435 -0.509650 -25.554165 2.154106 0.653253 0.620397 35.183061 -50.821777 14.971273 0.000000 0.000000 0.000000 -2.134183 -0.000038 -25.368956 1.278287 0.630072 0.138457 0.375093 0.268221 -1.625765 0.000000 0.000000 0.000000
43.466364 68.720674 326.441032 0.698583 0.308796 25.273045 -0.763548 0.019023 -25.274801 -0.000000 0.000000 0.000000 -0.409209 -1.370858 -0.327623 0.000000 0.000000 0.000000 -0.326403 1.188600 -0.136658 0.329307 -1.187798 0.143457 -14.048125 -13.415464 0.276155 6.625712 15.246873 -0.335232 0.000000 0.000000 0.000000 0.000000 0.000000 0.000000 0.683717 -2.181380 -0.709876 0.020587 1.763860 0.554852 1.080509 2.814985 -0.303053 -4.016730 -7.675257 2.414334 0.000000 0.000000 0.000000 0.000000 0.000000 0.000000 -1.767570 -0.565963 -25.631383 1.943603 0.694691 0.573935 29.925109 -46.718629 10.434520 0.000000 0.000000 0.000000 -2.362514 -0.109140 -25.465635 1.388612 0.803116 0.179844 0.392715 0.276255 -1.694667 0.000000 0.000000 0.000000
43.529333 68.706243 326.415117 0.733936 0.290976 25.125678 -0.788036 0.048204 -25.127210 -0.000000 0.000000 0.000000 -0.412894 -1.450939 -0.346938 0.000000 0.000000 0.000000 -0.456586 1.474773 -0.175065 0.461242 -1.473323 0.186872 -14.814953 -16.147042 -1.259821 5.054974 17.306206 1.261817 0.000000 0.000000 0.000000 0.000000 0.000000 0.000000 0.872138 -2.734248 -0.888420 -0.198371 2.312893 0.748058 -0.599292 2.895584 -0.293984 -4.045285 -6.556246 2.247229 0.000000 0.000000 0.000000 0.000000 0.000000 0.000000 -1.824649 -0.523839 -25.492556 1.744073 0.628811 0.508813 25.306782 -42.057606 6.923742 0.000000 0.000000 0.000000 -2.523724 -0.018377 -25.313397 1.540663 0.802220 0.175853 0.423330 0.291180 -1.815940 0.000000 0.000000 0.000000
43.616367 68.691042 326.405651 0.817898 0.252149 24.724523 -0.848379 0.113069 -24.725486 -0.000000 0.000000 0.000000 -0.427605 -1.537569 -0.367925 0.000000 0.000000 0.000000 -0.474820 1.472295 -0.177161 0.479528 -1.470769 0.189417 -14.007656 -17.274871 -2.505046 3.687707 17.609402 2.481421 0.000000 0.000000 0.000000 0.000000 0.000000 0.000000 1.229399 -3.483630 -1.142734 0.034259 4.316667 0.608241 -4.102110 1.455021 0.077456 -1.269085 -5.244182 1.971627 0.000000 0.000000 0.000000 0.000000 0.000000 0.000000 -1.948798 -0.449011 -25.109136 1.488179 0.558117 0.427402 18.164457 -33.061726 1.098722 0.000000 0.000000 0.000000 -2.748951 0.219348 -24.876201 1.768985 0.703053 0.145374 0.459864 0.313742 -1.968292 0.000000 0.000000 0.000000
43.735928 68.682867 326.424285 0.956017 0.190854 24.058724 -0.126524 0.114989 -24.033271 -0.793724 -0.243890 -0.029324 -0.420331 -1.582382 -0.378664 0.000000 0.000000 0.000000 -0.444670 1.466926 -0.172974 0.449243 -1.465532 0.184412 -11.824131 -17.622999 -3.849659 -0.423516 16.330259 4.659258 0.000000 0.000000 0.000000 0.000000 0.000000 0.000000 2.255787 -4.149464 -1.464202 -1.285892 6.367438 0.872927 -6.070484 1.454506 -0.128247 1.699548 -6.570302 2.169603 0.000000 0.000000 0.000000 0.000000 0.000000 0.000000 -2.161662 -0.264314 -24.467371 0.903528 0.938165 0.400929 14.868211 -27.137256 -1.319868 0.000000 0.000000 0.000000 -3.056232 0.652531 -24.128933 2.100077 0.462035 0.077886 0.539486 0.362342 -2.299346 0.000000 0.000000 0.000000
43.874151 68.688750 326.472817 1.131385 0.118876 22.910129 -0.187357 0.187628 -22.881521 -0.885882 -0.218291 -0.032404 -0.382847 -1.565845 -0.374365 0.000000 0.000000 0.000000 -0.402583 1.279704 -0.153365 0.406108 -1.278590 0.162392 -9.326959 -18.321627 -5.541999 -0.090117 16.242012 5.553161 0.000000 0.000000 0.000000 0.000000 0.000000 0.000000 5.274028 -4.188159 -1.892216 -4.045371 9.324831 0.903410 -8.539415 -0.044816 -0.226716 4.081158 -8.233726 2.577767 0.000000 0.000000 0.000000 0.000000 0.000000 0.000000 -2.431643 -0.032155 -23.343711 1.089462 0.865575 0.430824 14.975092 -27.214597 -0.201102 0.000000 0.000000 0.000000 -3.442071 1.259947 -22.847194 2.529453 0.058478 -0.029576 0.767322 0.493437 -3.233605 0.000000 0.000000 0.000000
44.022556 68.703155 326.538511 1.318696 0.021623 21.415014 -0.250018 0.237040 -21.381864 -0.126793 -0.066423 0.034215 -1.326105 -1.834459 -0.489369 0.000000 0.000000 0.000000 -1.184506 0.786101 -0.179650 0.337848 -2.162559 0.051461 -5.520522 -15.820108 -6.292350 -2.641053 12.799335 6.576685 0.000000 0.000000 0.000000 0.000000 0.000000 0.000000 9.302301 -3.708682 -2.507447 -7.925793 12.950154 0.512397 -10.392681 -1.119918 -0.433199 6.872780 -9.825049 2.698142 0.000000 0.000000 0.000000 0.000000 0.000000 0.000000 -2.706826 0.166911 -21.872863 1.172454 -0.038371 0.195734 13.676803 -23.923446 0.303913 0.000000 0.000000 0.000000 -3.872095 1.986355 -21.177804 3.009112 -0.467804 -0.163871 1.110137 0.674917 -4.614239 0.000000 0.000000 0.000000
44.177266 68.738804 326.597124 1.520588 -0.056835 19.655384 -0.323756 0.259866 -19.616849 -0.115191 -0.102001 0.040580 -1.647971 -2.184689 -0.610928 0.000000 0.000000 0.000000 -1.013133 0.024471 -0.078195 0.383591 -1.975049 -0.207599 -1.664450 -11.047721 -5.757899 -4.811721 7.415508 6.162558 0.000000 0.000000 0.000000 0.000000 0.000000 0.000000 15.558343 -2.851286 -3.326817 -12.759181 18.287424 -0.458126 -12.274847 -8.557260 -0.248394 11.560057 -6.764143 1.548531 0.000000 0.000000 0.000000 0.000000 0.000000 0.000000 -3.049737 0.330944 -20.146662 1.235872 -0.201949 0.166228 11.790763 -20.230577 -1.924789 0.000000 0.000000 0.000000 -4.383619 2.709598 -19.225485 3.511259 -1.043490 -0.305283 1.533771 0.882625 -6.295252 0.000000 0.000000 0.000000
44.320587 68.796784 326.647502 1.710687 -0.123681 17.793045 -0.373747 0.210068 -17.747428 -0.072564 -0.150218 0.050799 -2.194788 -2.895412 -0.841681 0.000000 0.000000 0.000000 -1.217872 0.190119 -0.091069 0.783570 -2.652869 -0.358725 -0.340911 -8.585180 -5.507182 -1.655767 6.586704 5.129143 0.000000 0.000000 0.000000 0.000000 0.000000 0.000000 23.868623 -2.006026 -4.589423 -17.594811 24.829123 -2.752060 -14.572392 -12.499158 -0.356345 15.378023 -6.204048 0.876167 0.000000 0.000000 0.000000 0.000000 0.000000 0.000000 -3.410753 0.466174 -18.319931 1.500461 -0.356002 0.189330 9.931615 -16.465096 -4.933945 0.000000 0.000000 0.000000 -4.904900 3.328481 -17.179562 3.960650 -1.583928 -0.433160 2.083318 1.114148 -8.421946 0.000000 0.000000 0.000000
44.444385 68.875732 326.675078 1.898935 -0.134917 15.840345 -0.361867 0.128267 -15.786243 -0.003802 -0.173820 0.066055 -3.061178 -3.978369 -1.167668 0.000000 0.000000 0.000000 -1.492199 -1.107196 0.002817 1.183891 -2.063265 -0.661802 -0.496029 -6.440831 -4.750850 0.312513 7.819571 4.535318 0.000000 0.000000 0.000000 0.000000 0.000000 0.000000 32.433431 -1.929040 -5.993962 -20.126901 32.892809 -7.178803 -16.590632 -13.086131 -0.615688 19.058640 -5.154294 -0.005460 0.000000 0.000000 0.000000 0.000000 0.000000 0.000000 -3.812957 0.485563 -16.415105 1.939762 -0.483138 0.259907 8.443800 -13.250385 -8.065935 0.000000 0.000000 0.000000 -5.413134 3.731213 -15.078574 4.302240 -2.027055 -0.534744 2.022220 3.734926 -11.731245 0.000000 0.000000 0.000000
44.535610 68.976824 326.645526 2.047654 -0.302114 13.960711 -0.308291 -0.061463 -13.893251 0.069932 -0.215732 0.081460 -4.193091 -4.915956 -1.530524 0.000000 0.000000 0.000000 -1.984603 -1.596720 0.030755 1.766411 -2.150060 -0.900029 -0.804930 -2.346060 -3.010098 2.178806 5.516572 2.824134 0.000000 0.000000 0.000000 0.000000 0.000000 0.000000 42.094587 -1.203750 -7.831982 -19.132539 40.133221 -15.489603 -18.985330 -9.565974 -1.570883 22.093444 -4.222239 -0.422878 0.000000 0.000000 0.000000 0.000000 0.000000 0.000000 -4.105174 0.608297 -14.565818 2.196085 -0.764678 0.241398 7.984027 -11.287737 -11.572146 0.000000 0.000000 0.000000 -5.789690 4.050171 -13.094228 4.516337 -2.291075 -0.593919 3.518733 0.869571 -12.869609 0.000000 0.000000 0.000000
